<?xml version="1.0" encoding="UTF-8"?>
<svg xmlns="http://www.w3.org/2000/svg" xmlns:xlink="http://www.w3.org/1999/xlink" width="32px" height="32px" viewBox="0 0 32 32" version="1.1">
<g id="surface1">
<path style=" stroke:none;fill-rule:nonzero;fill:rgb(0%,0%,0%);fill-opacity:1;" d="M 10.34375 0.0546875 C 9.769531 0.207031 9.207031 0.601562 8.929688 1.039062 C 8.800781 1.25 8.800781 1.25 8.332031 1.25 C 7.398438 1.25 6.582031 1.601562 5.914062 2.28125 C 5.394531 2.804688 5.074219 3.429688 4.90625 4.257812 L 4.875 4.425781 L 3.488281 4.449219 C 2.480469 4.476562 2.011719 4.507812 1.804688 4.574219 C 1.09375 4.804688 0.394531 5.492188 0.144531 6.207031 C 0.0390625 6.519531 0.03125 7.03125 0.03125 17.5 L 0.03125 28.46875 L 0.175781 28.824219 C 0.449219 29.507812 0.992188 30.050781 1.675781 30.324219 L 2.03125 30.46875 L 10.65625 30.488281 C 16.664062 30.5 19.382812 30.480469 19.605469 30.4375 C 20.09375 30.332031 20.636719 30.039062 20.957031 29.695312 C 21.476562 29.144531 21.6875 28.554688 21.6875 27.679688 L 21.6875 27.144531 L 21.957031 27.070312 C 22.101562 27.023438 22.492188 26.863281 22.832031 26.699219 L 23.445312 26.414062 L 26.050781 29.011719 C 27.480469 30.4375 28.757812 31.664062 28.875 31.738281 C 29.242188 31.957031 29.8125 32.039062 30.261719 31.945312 C 30.761719 31.84375 31.039062 31.699219 31.375 31.363281 C 32.007812 30.738281 32.167969 29.726562 31.769531 28.90625 C 31.71875 28.800781 30.492188 27.53125 29.042969 26.082031 L 26.417969 23.445312 L 26.667969 22.925781 C 27.949219 20.289062 27.71875 17.242188 26.042969 14.75 C 25.644531 14.15625 24.613281 13.125 24 12.707031 C 23.4375 12.324219 22.542969 11.867188 22.050781 11.710938 L 21.695312 11.605469 L 21.675781 9.039062 C 21.65625 6.519531 21.648438 6.460938 21.511719 6.105469 C 21.320312 5.636719 20.949219 5.175781 20.539062 4.898438 C 19.96875 4.523438 19.75 4.480469 18.21875 4.449219 C 16.789062 4.425781 16.75 4.417969 16.75 4.144531 C 16.75 3.875 16.480469 3.21875 16.207031 2.792969 C 15.5625 1.820312 14.511719 1.25 13.355469 1.25 C 12.886719 1.25 12.886719 1.25 12.757812 1.039062 C 12.5625 0.726562 12.15625 0.382812 11.773438 0.207031 C 11.414062 0.0429688 10.6875 -0.0390625 10.34375 0.0546875 Z M 11.3125 1.386719 C 11.539062 1.5 11.636719 1.605469 11.792969 1.90625 C 11.898438 2.113281 12.054688 2.324219 12.132812 2.375 C 12.226562 2.4375 12.523438 2.476562 13.085938 2.5 C 13.792969 2.53125 13.957031 2.554688 14.261719 2.699219 C 14.863281 2.980469 15.355469 3.585938 15.5 4.226562 L 15.550781 4.4375 L 6.132812 4.4375 L 6.226562 4.105469 C 6.34375 3.707031 6.679688 3.1875 6.988281 2.960938 C 7.425781 2.625 7.84375 2.507812 8.5625 2.5 C 9.460938 2.492188 9.605469 2.429688 9.851562 1.980469 C 10.085938 1.539062 10.167969 1.449219 10.476562 1.34375 C 10.820312 1.21875 10.992188 1.230469 11.3125 1.386719 Z M 19.78125 5.90625 C 20.007812 6.042969 20.136719 6.1875 20.261719 6.429688 L 20.4375 6.761719 L 20.4375 11.300781 L 19.707031 11.269531 C 17.988281 11.1875 16.226562 11.699219 14.769531 12.695312 C 14.105469 13.148438 13.042969 14.226562 12.625 14.855469 L 12.292969 15.375 L 9.445312 15.375 C 6.855469 15.375 6.574219 15.386719 6.375 15.488281 C 5.976562 15.679688 5.9375 16.21875 6.292969 16.5 C 6.449219 16.617188 6.550781 16.625 9.070312 16.625 C 10.914062 16.625 11.6875 16.644531 11.6875 16.695312 C 11.6875 16.730469 11.632812 16.960938 11.5625 17.207031 C 11.492188 17.457031 11.414062 17.820312 11.375 18.011719 L 11.304688 18.375 L 7.632812 18.375 C 5.167969 18.375 3.894531 18.398438 3.761719 18.445312 C 3.429688 18.554688 3.269531 18.992188 3.4375 19.320312 C 3.605469 19.625 3.613281 19.625 7.554688 19.625 L 11.242188 19.625 L 11.28125 19.980469 C 11.320312 20.351562 11.417969 20.976562 11.480469 21.230469 L 11.511719 21.375 L 7.738281 21.375 C 5.199219 21.375 3.894531 21.398438 3.761719 21.445312 C 3.429688 21.554688 3.269531 21.992188 3.4375 22.320312 C 3.605469 22.625 3.582031 22.625 7.898438 22.625 L 11.929688 22.625 L 12.15625 23.074219 C 12.523438 23.804688 12.988281 24.429688 13.65625 25.101562 C 14.582031 26.023438 15.585938 26.65625 16.761719 27.054688 C 17.738281 27.386719 18.242188 27.460938 19.394531 27.46875 L 20.4375 27.46875 L 20.4375 27.78125 C 20.4375 27.949219 20.40625 28.199219 20.367188 28.335938 C 20.28125 28.648438 19.855469 29.074219 19.523438 29.175781 C 19.324219 29.230469 17.324219 29.25 10.804688 29.25 C 2.429688 29.25 2.34375 29.242188 2.0625 29.117188 C 1.6875 28.949219 1.570312 28.835938 1.398438 28.46875 L 1.25 28.15625 L 1.25 6.773438 L 1.414062 6.445312 C 1.585938 6.09375 1.90625 5.832031 2.261719 5.75 C 2.375 5.71875 6.292969 5.707031 10.976562 5.707031 L 19.480469 5.71875 Z M 20.78125 12.65625 C 23.125 13.148438 25.085938 14.882812 25.851562 17.113281 C 26.9375 20.292969 25.648438 23.695312 22.71875 25.367188 C 21.355469 26.148438 19.550781 26.425781 17.96875 26.09375 C 15.632812 25.605469 13.664062 23.867188 12.898438 21.636719 C 11.519531 17.59375 14.039062 13.335938 18.25 12.601562 C 18.914062 12.480469 20.09375 12.507812 20.78125 12.65625 Z M 28.199219 26.980469 C 30.363281 29.15625 30.679688 29.5 30.71875 29.699219 C 30.78125 30.023438 30.710938 30.238281 30.476562 30.476562 C 30.238281 30.710938 30.023438 30.78125 29.699219 30.71875 C 29.5 30.679688 29.15625 30.363281 26.980469 28.195312 L 24.492188 25.710938 L 25.074219 25.113281 C 25.394531 24.789062 25.667969 24.511719 25.6875 24.507812 C 25.707031 24.507812 26.835938 25.617188 28.199219 26.980469 Z M 28.199219 26.980469 "/>
<path style=" stroke:none;fill-rule:nonzero;fill:rgb(0%,0%,0%);fill-opacity:1;" d="M 10.601562 2.46875 C 10.34375 2.605469 10.257812 2.742188 10.25 3.019531 C 10.25 3.34375 10.519531 3.625 10.832031 3.625 C 11.167969 3.625 11.4375 3.367188 11.4375 3.054688 C 11.4375 2.75 11.300781 2.53125 11.050781 2.445312 C 10.804688 2.355469 10.820312 2.355469 10.601562 2.46875 Z M 10.601562 2.46875 "/>
<path style=" stroke:none;fill-rule:nonzero;fill:rgb(0%,0%,0%);fill-opacity:1;" d="M 7.582031 7.460938 C 7.019531 7.644531 6.664062 7.960938 6.394531 8.53125 C 6.226562 8.894531 6.21875 8.945312 6.21875 9.90625 C 6.21875 10.851562 6.230469 10.925781 6.382812 11.257812 C 6.957031 12.480469 8.523438 12.789062 9.457031 11.851562 C 9.917969 11.394531 10.050781 10.914062 9.804688 10.601562 C 9.492188 10.207031 9.09375 10.25 8.761719 10.707031 C 8.40625 11.199219 8.03125 11.28125 7.675781 10.949219 L 7.5 10.789062 L 7.5 9.914062 C 7.5 9.175781 7.519531 9.011719 7.613281 8.898438 C 7.929688 8.507812 8.429688 8.550781 8.699219 8.992188 C 8.894531 9.320312 9.0625 9.4375 9.332031 9.4375 C 9.511719 9.4375 9.617188 9.394531 9.757812 9.257812 C 10 9.007812 9.992188 8.75 9.738281 8.3125 C 9.28125 7.5625 8.394531 7.210938 7.582031 7.460938 Z M 7.582031 7.460938 "/>
<path style=" stroke:none;fill-rule:nonzero;fill:rgb(0%,0%,0%);fill-opacity:1;" d="M 11.398438 7.4375 C 11.199219 7.519531 11.0625 7.75 11.0625 8 C 11.0625 8.136719 11.355469 8.917969 11.894531 10.179688 C 12.773438 12.269531 12.851562 12.394531 13.25 12.394531 C 13.648438 12.394531 13.726562 12.269531 14.605469 10.179688 C 15.164062 8.863281 15.4375 8.144531 15.4375 7.988281 C 15.4375 7.511719 14.929688 7.238281 14.523438 7.488281 C 14.367188 7.585938 14.25 7.804688 13.804688 8.867188 C 13.519531 9.554688 13.269531 10.125 13.25 10.125 C 13.230469 10.125 12.980469 9.554688 12.695312 8.867188 C 12.242188 7.800781 12.132812 7.59375 11.976562 7.492188 C 11.769531 7.367188 11.605469 7.351562 11.398438 7.4375 Z M 11.398438 7.4375 "/>
<path style=" stroke:none;fill-rule:nonzero;fill:rgb(0%,0%,0%);fill-opacity:1;" d="M 3.75 15.445312 C 3.519531 15.539062 3.375 15.75 3.375 16.019531 C 3.375 16.335938 3.664062 16.625 3.96875 16.625 C 4.226562 16.625 4.539062 16.382812 4.582031 16.144531 C 4.625 15.894531 4.480469 15.585938 4.257812 15.476562 C 4.042969 15.363281 3.96875 15.355469 3.75 15.445312 Z M 3.75 15.445312 "/>
<path style=" stroke:none;fill-rule:nonzero;fill:rgb(0%,0%,0%);fill-opacity:1;" d="M 3.75 24.445312 C 3.425781 24.574219 3.273438 25.007812 3.4375 25.320312 C 3.601562 25.613281 3.710938 25.625 6.304688 25.625 C 7.992188 25.625 8.792969 25.605469 8.898438 25.554688 C 9.105469 25.460938 9.269531 25.113281 9.21875 24.882812 C 9.199219 24.78125 9.113281 24.636719 9.023438 24.554688 L 8.863281 24.40625 L 6.386719 24.394531 C 4.851562 24.386719 3.84375 24.40625 3.75 24.445312 Z M 3.75 24.445312 "/>
<path style=" stroke:none;fill-rule:nonzero;fill:rgb(0%,0%,0%);fill-opacity:1;" d="M 10.625 24.445312 C 10.019531 24.679688 10.195312 25.625 10.84375 25.625 C 11.164062 25.625 11.4375 25.351562 11.4375 25.03125 C 11.4375 24.726562 11.34375 24.570312 11.09375 24.460938 C 10.851562 24.363281 10.835938 24.363281 10.625 24.445312 Z M 10.625 24.445312 "/>
<path style=" stroke:none;fill-rule:nonzero;fill:rgb(0%,0%,0%);fill-opacity:1;" d="M 18.6875 13.914062 C 17.324219 14.164062 16.34375 14.648438 15.5 15.5 C 14.78125 16.210938 14.289062 17.101562 14.023438 18.125 C 13.863281 18.773438 13.863281 19.976562 14.023438 20.625 C 14.550781 22.695312 16.054688 24.199219 18.125 24.726562 C 18.773438 24.886719 19.976562 24.886719 20.625 24.726562 C 22.695312 24.199219 24.199219 22.695312 24.726562 20.625 C 24.886719 19.976562 24.886719 18.773438 24.726562 18.125 C 24.207031 16.085938 22.742188 14.601562 20.71875 14.050781 C 20.292969 13.9375 19.023438 13.851562 18.6875 13.914062 Z M 20.199219 15.21875 C 21.730469 15.539062 22.929688 16.617188 23.425781 18.105469 C 23.554688 18.507812 23.582031 18.71875 23.585938 19.3125 C 23.59375 20.074219 23.5 20.550781 23.226562 21.15625 L 23.085938 21.46875 L 22.882812 21.085938 C 22.632812 20.617188 22.101562 20.074219 21.667969 19.84375 C 21.488281 19.742188 21.332031 19.664062 21.324219 19.648438 C 21.3125 19.644531 21.363281 19.46875 21.4375 19.261719 C 21.625 18.757812 21.601562 17.980469 21.386719 17.550781 C 21.15625 17.085938 20.789062 16.710938 20.324219 16.488281 C 19.957031 16.300781 19.851562 16.28125 19.375 16.28125 C 18.898438 16.28125 18.792969 16.300781 18.425781 16.488281 C 17.960938 16.710938 17.59375 17.085938 17.363281 17.550781 C 17.15625 17.976562 17.132812 18.710938 17.3125 19.242188 C 17.382812 19.460938 17.4375 19.644531 17.425781 19.65625 C 17.414062 19.664062 17.261719 19.742188 17.082031 19.84375 C 16.648438 20.074219 16.117188 20.617188 15.867188 21.085938 L 15.664062 21.46875 L 15.523438 21.15625 C 15.304688 20.679688 15.179688 20.148438 15.144531 19.5625 C 14.980469 16.867188 17.554688 14.65625 20.199219 15.21875 Z M 19.8125 17.617188 C 20.488281 17.976562 20.488281 18.960938 19.8125 19.320312 C 19.175781 19.664062 18.4375 19.207031 18.4375 18.46875 C 18.4375 17.925781 18.851562 17.5 19.375 17.5 C 19.492188 17.5 19.695312 17.550781 19.8125 17.617188 Z M 20.792969 20.820312 C 21.460938 21.070312 22 21.8125 22 22.488281 C 22 22.699219 21.96875 22.738281 21.636719 22.945312 C 20.898438 23.40625 20.257812 23.59375 19.375 23.59375 C 18.492188 23.59375 17.851562 23.40625 17.113281 22.945312 C 16.78125 22.738281 16.75 22.699219 16.75 22.488281 C 16.75 22.125 16.992188 21.5625 17.273438 21.269531 C 17.4375 21.101562 17.675781 20.9375 17.90625 20.84375 C 18.257812 20.699219 18.363281 20.6875 19.355469 20.6875 C 20.304688 20.6875 20.476562 20.707031 20.792969 20.820312 Z M 20.792969 20.820312 "/>
</g>
</svg>
