<?xml version="1.0" encoding="UTF-8"?>
<svg xmlns="http://www.w3.org/2000/svg" xmlns:xlink="http://www.w3.org/1999/xlink" width="32px" height="32px" viewBox="0 0 32 32" version="1.1">
<g id="surface1">
<path style=" stroke:none;fill-rule:nonzero;fill:rgb(0%,0%,0%);fill-opacity:1;" d="M 14.898438 0.375 C 8.574219 0.804688 3.082031 4.988281 0.929688 11.019531 C 0.601562 11.929688 0.292969 13.199219 0.148438 14.21875 C 0.0078125 15.199219 -0.0078125 17.320312 0.117188 18.3125 C 0.757812 23.414062 3.710938 27.851562 8.164062 30.386719 C 9.1875 30.976562 10.773438 31.636719 11.179688 31.648438 C 11.5 31.65625 11.769531 31.523438 11.90625 31.292969 C 12.019531 31.105469 12.023438 30.980469 12.007812 29.625 C 12 28.820312 11.988281 28.148438 11.980469 28.148438 C 11.976562 28.144531 11.742188 28.175781 11.46875 28.226562 C 9.824219 28.492188 8.363281 28.125 7.429688 27.195312 C 7.070312 26.832031 6.957031 26.65625 6.59375 25.90625 C 6.007812 24.679688 5.664062 24.210938 5 23.730469 C 4.511719 23.382812 4.25 23.117188 4.25 22.988281 C 4.25 22.675781 5.007812 22.570312 5.605469 22.800781 C 6.386719 23.09375 6.90625 23.542969 7.476562 24.414062 C 8.261719 25.605469 9.25 26.136719 10.507812 26.042969 C 10.988281 26.007812 11.960938 25.738281 12.039062 25.617188 C 12.054688 25.582031 12.117188 25.382812 12.164062 25.175781 C 12.28125 24.675781 12.585938 24.042969 12.851562 23.75 C 13.101562 23.46875 13.125 23.488281 12.3125 23.375 C 11.667969 23.289062 10.550781 23 10.011719 22.789062 C 7.75 21.894531 6.445312 20.226562 5.957031 17.605469 C 5.800781 16.769531 5.800781 14.710938 5.957031 14.0625 C 6.179688 13.132812 6.601562 12.28125 7.175781 11.574219 L 7.445312 11.242188 L 7.351562 10.949219 C 7.023438 9.945312 7.0625 8.636719 7.449219 7.425781 C 7.574219 7.042969 7.601562 7.007812 7.789062 6.96875 C 8.457031 6.84375 9.988281 7.394531 11.386719 8.257812 L 12 8.636719 L 12.542969 8.511719 C 13.820312 8.21875 14.40625 8.15625 16 8.15625 C 17.601562 8.15625 18.179688 8.21875 19.457031 8.511719 L 20.007812 8.636719 L 20.488281 8.335938 C 21.445312 7.738281 22.386719 7.292969 23.03125 7.132812 C 23.5625 7 24.023438 6.9375 24.226562 6.976562 C 24.398438 7.007812 24.429688 7.050781 24.550781 7.425781 C 24.90625 8.539062 24.96875 9.949219 24.695312 10.8125 L 24.5625 11.21875 L 24.6875 11.375 C 25.300781 12.132812 25.78125 13.054688 26.011719 13.929688 C 26.175781 14.542969 26.238281 16.105469 26.132812 16.980469 C 25.667969 20.78125 23.585938 22.824219 19.625 23.375 C 18.875 23.476562 18.886719 23.46875 19.105469 23.707031 C 19.394531 24.007812 19.667969 24.542969 19.824219 25.101562 C 19.949219 25.5625 19.960938 25.761719 19.992188 28.40625 C 20.039062 31.480469 20.023438 31.417969 20.40625 31.574219 C 20.699219 31.699219 21.042969 31.65625 21.65625 31.414062 C 23.832031 30.570312 25.542969 29.46875 27.179688 27.855469 C 29.789062 25.292969 31.425781 21.96875 31.882812 18.3125 C 32.007812 17.320312 31.992188 15.199219 31.851562 14.21875 C 30.769531 6.601562 24.65625 0.898438 17.019531 0.375 C 16.011719 0.304688 15.925781 0.304688 14.898438 0.375 Z M 14.898438 0.375 "/>
</g>
</svg>
